<?xml version="1.0" encoding="UTF-8" standalone="no"?>
<svg
   width="814.16052pt"
   height="355.79559pt"
   viewBox="0 0 814.16052 355.79559"
   version="1.1"
   id="svg46"
   sodipodi:docname="logo-edit.svg"
   inkscape:version="1.1.2 (b8e25be833, 2022-02-05)"
   xmlns:inkscape="http://www.inkscape.org/namespaces/inkscape"
   xmlns:sodipodi="http://sodipodi.sourceforge.net/DTD/sodipodi-0.dtd"
   xmlns:xlink="http://www.w3.org/1999/xlink"
   xmlns="http://www.w3.org/2000/svg"
   xmlns:svg="http://www.w3.org/2000/svg"
   xmlns:rdf="http://www.w3.org/1999/02/22-rdf-syntax-ns#"
   xmlns:cc="http://creativecommons.org/ns#"
   xmlns:dc="http://purl.org/dc/elements/1.1/">
  <sodipodi:namedview
     id="namedview48"
     pagecolor="#ffffff"
     bordercolor="#666666"
     borderopacity="1.0"
     inkscape:pageshadow="2"
     inkscape:pageopacity="0.0"
     inkscape:pagecheckerboard="0"
     inkscape:document-units="pt"
     showgrid="false"
     inkscape:zoom="0.74393526"
     inkscape:cx="631.1033"
     inkscape:cy="94.766311"
     inkscape:window-width="1920"
     inkscape:window-height="1001"
     inkscape:window-x="-9"
     inkscape:window-y="-9"
     inkscape:window-maximized="1"
     inkscape:current-layer="axes_1" />
  <metadata
     id="metadata2">
    <rdf:RDF>
      <cc:Work>
        <dc:type
           rdf:resource="http://purl.org/dc/dcmitype/StillImage" />
        <dc:date>2022-03-27T13:56:49.074843</dc:date>
        <dc:format>image/svg+xml</dc:format>
        <dc:creator>
          <cc:Agent>
            <dc:title>Matplotlib v3.5.1, https://matplotlib.org/</dc:title>
          </cc:Agent>
        </dc:creator>
      </cc:Work>
    </rdf:RDF>
  </metadata>
  <defs
     id="defs6">
    <style
       type="text/css"
       id="style4">*{stroke-linejoin: round; stroke-linecap: butt}</style>
  </defs>
  <g
     id="figure_1"
     transform="translate(-9.2785898,-220.20441)">
    <g
       id="patch_1">
      <path
         d="M 0,576 H 864 V 0 H 0 Z"
         style="fill:none"
         id="path8" />
    </g>
    <g
       id="axes_1">
      <g
         id="PolyCollection_1"
         transform="matrix(1.3370406,0,0,0.85884634,-112.16912,142.1333)">
        <defs
           id="defs12">
          <path
             id="mceb9520a22"
             d="M 223.86164,-72.000093 V -72 h 2.62966 2.62966 2.62965 2.62966 2.62966 2.62966 2.62966 2.62966 2.62965 2.62966 2.62966 2.62966 2.62966 2.62965 2.62966 2.62966 2.62966 2.62966 2.62966 2.62966 2.62965 2.62966 2.62966 2.62966 2.62966 2.62965 2.62966 2.62966 2.62966 2.62966 2.62966 2.62965 2.62966 2.62966 2.62966 2.62966 2.62966 2.62965 2.62966 2.62966 2.62966 2.62966 2.62965 2.62966 2.62966 2.62966 2.62966 2.62966 2.62966 2.62965 2.62966 2.62966 2.62966 2.62966 2.62965 2.62966 2.62966 2.62966 2.62966 2.62966 2.62965 2.62966 2.62966 2.62966 2.62966 2.62966 2.62965 2.62966 2.62966 2.62966 2.62966 2.62966 2.62965 2.62966 2.62966 2.62966 2.62966 2.62965 2.62966 2.62966 2.62966 2.62966 2.62966 2.62965 2.62966 2.62966 2.62966 2.62966 2.62966 2.62965 2.62966 2.62966 2.62966 2.62966 2.62966 2.62965 2.62966 2.62966 2.62966 2.62966 2.62966 2.62965 2.62966 2.62966 2.62966 2.62966 2.62965 2.62966 2.62966 2.62966 2.62966 2.62966 2.62965 2.62966 2.62966 2.62966 2.62966 2.62966 2.62965 2.62966 2.62966 2.62966 2.62966 2.62966 2.62965 2.62966 2.62966 2.62966 2.62966 2.62965 2.62966 2.62966 2.62966 2.62966 2.62966 2.62966 2.62965 2.62966 2.62966 2.62966 2.62966 2.62965 2.62966 2.62966 2.62966 2.62966 2.62966 2.62965 2.62966 2.62966 2.62966 2.62966 2.62966 2.62965 2.62966 2.62966 2.62966 2.62966 2.62965 2.62966 2.62966 2.62966 2.62966 2.62966 2.62966 2.62965 2.62966 2.62966 2.62966 2.62966 2.62965 2.62966 2.62966 2.62966 2.62966 2.62966 2.62965 2.62966 2.62966 2.62966 2.62966 2.62966 2.62965 2.62966 2.62966 2.62966 2.62966 2.62965 2.62966 2.62966 2.62966 2.62966 2.62966 2.62966 2.62965 2.62966 2.62966 2.62966 2.62966 v -9.2e-5 0 l -2.62966,-4.72e-4 -2.62966,-0.0016 -2.62966,-0.0031 -2.62966,-0.0028 -2.62965,-3.5e-4 -2.62966,4.39e-4 -2.62966,-0.0026 -2.62966,-0.0049 -2.62966,-0.0028 -2.62966,3.53e-4 -2.62966,9.84e-4 -2.62965,5.41e-4 -2.62966,4.29e-4 -2.62966,-6.75e-4 -2.62966,-0.0029 -2.62966,-0.0046 -2.62965,-0.0078 -2.62966,-0.01546 -2.62966,-0.0222 -2.62966,-0.02012 -2.62966,-0.01628 -2.62966,-0.0198 -2.62965,-0.02136 -2.62966,-0.01473 -2.62966,-0.01342 -2.62966,-0.02982 -2.62966,-0.06176 -2.62966,-0.09402 -2.62965,-0.105756 -2.62966,-0.09001 -2.62966,-0.06475 -2.62966,-0.05343 -2.62966,-0.06051 -2.62965,-0.09175 -2.62966,-0.152517 -2.62966,-0.205799 -2.62966,-0.224482 -2.62966,-0.253444 -2.62966,-0.333203 -2.62966,-0.427146 -2.62965,-0.492157 -2.62966,-0.541309 -2.62966,-0.596828 -2.62966,-0.643301 -2.62966,-0.654176 -2.62965,-0.67792 -2.62966,-0.808882 -2.62966,-1.022098 -2.62966,-1.21004 -2.62966,-1.332163 -2.62966,-1.396549 -2.62965,-1.464623 -2.62966,-1.639108 -2.62966,-1.902634 -2.62966,-2.125716 -2.62966,-2.292737 -2.62966,-2.501365 -2.62965,-2.75058 -2.62966,-2.979374 -2.62966,-3.20793 -2.62966,-3.52043 -2.62966,-3.96472 -2.62965,-4.45006 -2.62966,-4.77819 -2.62966,-4.90691 -2.62966,-5.01724 -2.62966,-5.22266 -2.62966,-5.48654 -2.62966,-5.72413 -2.62965,-5.94969 -2.62966,-6.31304 -2.62966,-6.72909 -2.62966,-6.88735 -2.62966,-7.07005 -2.62965,-7.9945 -2.62966,-9.35187 -2.62966,-9.92824 -2.62966,-9.37974 -2.62966,-8.57847 -2.62966,-8.28279 -2.62965,-8.39269 -2.62966,-8.57892 -2.62966,-8.75771 -2.62966,-8.93393 -2.62966,-9.09437 -2.62966,-9.1487 -2.62965,-9.01629 -2.62966,-8.58091 -2.62966,-7.68561 -2.62966,-6.71302 -2.62966,-6.39857 -2.62966,-6.63453 -2.62965,-6.57594 -2.62966,-5.91132 -2.62966,-5.03666 -2.62966,-4.19949 -2.62966,-3.36545 -2.62965,-2.86853 -2.62966,-3.04618 -2.62966,-3.25787 -2.62966,-2.64865 -2.62966,-1.31369 -2.62966,0.0157 -2.62965,1.02248 -2.62966,1.88602 -2.62966,2.39021 -2.62966,2.50812 -2.62966,2.97363 -2.62966,4.00843 -2.62965,4.9806 -2.62966,5.65773 -2.62966,6.44782 -2.62966,7.23672 -2.62966,7.44774 -2.62966,7.16892 -2.62965,7.08921 -2.62966,7.65528 -2.62966,8.56138 -2.62966,9.02408 -2.62966,8.81347 -2.62966,8.53974 -2.62965,8.64632 -2.62966,8.97618 -2.62966,9.08022 -2.62966,8.69749 -2.62966,8.2535 -2.62965,8.23172 -2.62966,8.40208 -2.62966,8.45884 -2.62966,8.46271 -2.62966,8.27817 -2.62966,7.80596 -2.62965,7.38424 -2.62966,7.13473 -2.62966,6.73617 -2.62966,6.12125 -2.62966,5.62644 -2.62966,5.4415 -2.62965,5.3649 -2.62966,5.1063 -2.62966,4.64268 -2.62966,4.19073 -2.62966,3.88532 -2.62966,3.6455 -2.62965,3.38995 -2.62966,3.22881 -2.62966,3.193468 -2.62966,3.018099 -2.62966,2.596314 -2.62965,2.223862 -2.62966,2.122763 -2.62966,2.113695 -2.62966,1.937908 -2.62966,1.636283 -2.62966,1.381612 -2.62966,1.187724 -2.62965,1.003939 -2.62966,0.82747 -2.62966,0.669444 -2.62966,0.593141 -2.62966,0.597931 -2.62965,0.556155 -2.62966,0.447878 -2.62966,0.386173 -2.62966,0.390371 -2.62966,0.381009 -2.62966,0.349248 -2.62965,0.339075 -2.62966,0.331947 -2.62966,0.291652 -2.62966,0.2219 -2.62966,0.148774 -2.62966,0.107847 -2.62965,0.106276 -2.62966,0.104993 -2.62966,0.07862 -2.62966,0.05176 -2.62966,0.04648 -2.62965,0.04765 -2.62966,0.04406 -2.62966,0.0431 -2.62966,0.04185 -2.62966,0.03355 -2.62966,0.02197 -2.62966,0.0123 -2.62965,0.0075 -2.62966,0.0063 -2.62966,0.0051 -2.62966,0.0044 -2.62966,0.0049 -2.62965,0.0029 -2.62966,-0.0011 -2.62966,-9.82e-4 -2.62966,0.003 -2.62966,0.0059 -2.62966,0.006 -2.62965,0.0041 -2.62966,0.0018 z"
             style="stroke:#4bc2ad;stroke-width:0.2" />
        </defs>
        <g
           clip-path="url(#p1304fc6e05)"
           id="g16">
          <use
             xlink:href="#mceb9520a22"
             x="0"
             y="576"
             style="fill:#4bc2ad;fill-opacity:0.5;stroke:#4bc2ad;stroke-width:0.2"
             id="use14"
             width="100%"
             height="100%" />
        </g>
      </g>
      <g
         id="PolyCollection_2"
         transform="matrix(1.3370406,0,0,0.85884634,-112.16912,142.1333)">
        <defs
           id="defs20">
          <path
             id="m839438c0d4"
             d="M 250.98531,-72.000192 V -72 h 1.08122 1.08122 1.08122 1.08122 1.08122 1.08123 1.08122 1.08122 1.08122 1.08122 1.08122 1.08122 1.08122 1.08122 1.08122 1.08122 1.08122 1.08122 1.08122 1.08122 1.08122 1.08122 1.08123 1.08122 1.08122 1.08122 1.08122 1.08122 1.08122 1.08122 1.08122 1.08122 1.08122 1.08122 1.08122 1.08122 1.08122 1.08122 1.08122 1.08122 1.08123 1.08122 1.08122 1.08122 1.08122 1.08122 1.08122 1.08122 1.08122 1.08122 1.08122 1.08122 1.08122 1.08122 1.08122 1.08122 1.08123 1.08122 1.08122 1.08122 1.08122 1.08122 1.08122 1.08122 1.08122 1.08122 1.08122 1.08122 1.08122 1.08122 1.08122 1.08122 1.08122 1.08122 1.08123 1.08122 1.08122 1.08122 1.08122 1.08122 1.08122 1.08122 1.08122 1.08122 1.08122 1.08122 1.08122 1.08122 1.08122 1.08122 1.08122 1.08122 1.08123 1.08122 1.08122 1.08122 1.08122 1.08122 1.08122 1.08122 1.08122 1.08122 1.08122 1.08122 1.08122 1.08122 1.08122 1.08122 1.08122 1.08122 1.08123 1.08122 1.08122 1.08122 1.08122 1.08122 1.08122 1.08122 1.08122 1.08122 1.08122 1.08122 1.08122 1.08122 1.08122 1.08123 1.08121 1.08123 1.08122 1.08122 1.08122 1.08122 1.08122 1.08122 1.08122 1.08122 1.08122 1.08122 1.08122 1.08122 1.08122 1.08122 1.08122 1.08123 1.08121 1.08123 1.08122 1.08122 1.08122 1.08122 1.08122 1.08122 1.08122 1.08122 1.08122 1.08122 1.08122 1.08122 1.08122 1.08122 1.08122 1.08122 1.08123 1.08122 1.08122 1.08122 1.08122 1.08122 1.08122 1.08122 1.08122 1.08122 1.08122 1.08122 1.08122 1.08122 1.08122 1.08122 1.08122 1.08122 1.08123 1.08122 1.08122 1.08122 1.08122 1.08122 1.08122 1.08122 1.08122 1.08122 1.08122 1.08122 1.08122 1.08122 1.08122 1.08122 1.08123 1.08122 1.08122 v -1.93e-4 0 l -1.08122,-7.63e-4 -1.08122,-0.0024 -1.08123,-0.005 -1.08122,-0.0066 -1.08122,-0.0052 -1.08122,-0.0025 -1.08122,-0.0019 -1.08122,-0.0032 -1.08122,-0.0039 -1.08122,-0.0044 -1.08122,-0.0067 -1.08122,-0.01015 -1.08122,-0.01253 -1.08122,-0.01355 -1.08122,-0.01447 -1.08122,-0.01545 -1.08122,-0.01858 -1.08122,-0.02832 -1.08123,-0.04292 -1.08122,-0.05311 -1.08122,-0.05723 -1.08122,-0.06601 -1.08122,-0.08108 -1.08122,-0.08839 -1.08122,-0.09204 -1.08122,-0.12114 -1.08122,-0.171542 -1.08122,-0.187317 -1.08122,-0.147876 -1.08122,-0.120733 -1.08122,-0.168999 -1.08122,-0.269095 -1.08122,-0.36919 -1.08122,-0.451511 -1.08122,-0.503592 -1.08122,-0.511193 -1.08123,-0.509633 -1.08122,-0.567981 -1.08122,-0.704081 -1.08122,-0.865858 -1.08122,-0.979684 -1.08122,-1.00839 -1.08122,-1.016312 -1.08122,-1.134312 -1.08122,-1.387365 -1.08122,-1.654015 -1.08122,-1.852003 -1.08122,-2.017792 -1.08122,-2.203043 -1.08122,-2.438058 -1.08122,-2.764242 -1.08122,-3.177744 -1.08122,-3.510633 -1.08123,-3.56548 -1.08121,-3.46641 -1.08123,-3.55598 -1.08122,-3.93299 -1.08122,-4.4503 -1.08122,-5.02053 -1.08122,-5.60574 -1.08122,-6.11349 -1.08122,-6.50412 -1.08122,-6.80314 -1.08122,-7.02997 -1.08122,-7.2993 -1.08122,-7.75708 -1.08122,-8.34048 -1.08122,-8.8959 -1.08122,-9.39187 -1.08122,-9.80938 -1.08122,-10.11019 -1.08123,-10.37263 -1.08121,-10.66364 -1.08123,-10.88744 -1.08122,-11.03589 -1.08122,-11.28207 -1.08122,-11.65795 -1.08122,-12.0418 -1.08122,-12.29534 -1.08122,-12.21648 -1.08122,-11.84312 -1.08122,-11.57082 -1.08122,-11.62981 -1.08122,-11.97293 -1.08122,-12.39505 -1.08122,-12.35039 -1.08122,-11.47175 -1.08122,-10.15144 -1.08123,-8.95089 -1.08122,-8.20607 -1.08122,-8.16761 -1.08122,-8.54741 -1.08122,-8.49621 -1.08122,-7.52395 -1.08122,-5.88395 -1.08122,-4.14744 -1.08122,-2.72557 -1.08122,-1.78891 -1.08122,-1.45205 -1.08122,-1.58117 -1.08122,-1.44607 -1.08122,-0.31342 -1.08122,1.37438 -1.08122,2.37535 -1.08122,2.46669 -1.08122,2.72585 -1.08123,3.91243 -1.08122,5.63918 -1.08122,7.13824 -1.08122,8.10121 -1.08122,8.69983 -1.08122,9.13488 -1.08122,9.41393 -1.08122,9.57088 -1.08122,9.66641 -1.08122,9.63233 -1.08122,9.57614 -1.08122,9.8344 -1.08122,10.51704 -1.08122,11.47646 -1.08122,12.45904 -1.08122,13.02531 -1.08122,12.87311 -1.08122,12.33027 -1.08123,12.0322 -1.08122,12.04125 -1.08122,11.8208 -1.08122,11.1464 -1.08122,10.35142 -1.08122,9.78997 -1.08122,9.67042 -1.08122,9.98231 -1.08122,10.26443 -1.08122,10.00963 -1.08122,9.30528 -1.08122,8.64789 -1.08122,8.2732 -1.08122,7.96547 -1.08122,7.47214 -1.08122,6.83833 -1.08122,6.26203 -1.08122,5.87326 -1.08123,5.66496 -1.08122,5.46233 -1.08122,5.0928 -1.08122,4.57844 -1.08122,4.0353 -1.08122,3.55962 -1.08122,3.24281 -1.08122,3.12417 -1.08122,3.139575 -1.08122,3.154451 -1.08122,3.018914 -1.08122,2.661867 -1.08122,2.167623 -1.08122,1.708059 -1.08122,1.419607 -1.08122,1.325426 -1.08123,1.321903 -1.08122,1.282539 -1.08122,1.167192 -1.08122,1.004851 -1.08122,0.830267 -1.08122,0.656893 -1.08122,0.500016 -1.08122,0.418238 -1.08122,0.452251 -1.08122,0.524438 -1.08122,0.513917 -1.08122,0.414902 -1.08122,0.321068 -1.08122,0.277776 -1.08122,0.246526 -1.08122,0.194007 -1.08122,0.130579 -1.08122,0.07827 -1.08123,0.04782 -1.08122,0.04078 -1.08122,0.0576 -1.08122,0.09122 -1.08122,0.11908 -1.08122,0.118917 -1.08122,0.09041 -1.08122,0.05543 -1.08122,0.03451 -1.08122,0.02661 -1.08122,0.0205 -1.08122,0.01443 -1.08122,0.01344 -1.08122,0.01645 -1.08122,0.01571 -1.08122,0.0084 -1.08122,9.13e-4 -1.08123,-1.03e-4 -1.08122,0.0037 -1.08122,0.0061 -1.08122,0.0049 -1.08122,0.0024 z"
             style="stroke:#357ba3;stroke-width:0.2" />
        </defs>
        <g
           clip-path="url(#p1304fc6e05)"
           id="g24">
          <use
             xlink:href="#m839438c0d4"
             x="0"
             y="576"
             style="fill:#357ba3;fill-opacity:0.5;stroke:#357ba3;stroke-width:0.2"
             id="use22"
             width="100%"
             height="100%" />
        </g>
      </g>
      <g
         id="PolyCollection_3"
         transform="matrix(1.3370406,0,0,0.85884634,-112.16915,142.1333)">
        <defs
           id="defs28">
          <path
             id="mcbba252e6b"
             d="M 138.43636,-72.000134 V -72 h 1.43046 1.43045 1.43046 1.43045 1.43046 1.43045 1.43046 1.43045 1.43046 1.43045 1.43046 1.43045 1.43046 1.43045 1.43046 1.43045 1.43046 1.43045 1.43046 1.43045 1.43046 1.43045 1.43046 1.43045 1.43046 1.43045 1.43046 1.43045 1.43046 1.43046 1.43045 1.43045 1.43046 1.43045 1.43046 1.43045 1.43046 1.43046 1.43045 1.43046 1.43045 1.43046 1.43045 1.43046 1.43045 1.43046 1.43045 1.43046 1.43045 1.43046 1.43045 1.43046 1.43045 1.43046 1.43045 1.43046 1.43045 1.43046 1.43045 1.43046 1.43045 1.43046 1.43045 1.43046 1.43045 1.43046 1.43045 1.43046 1.43045 1.43046 1.43045 1.43046 1.43045 1.43046 1.43045 1.43046 1.43045 1.43046 1.43045 1.43046 1.43045 1.43046 1.43045 1.43046 1.43045 1.43046 1.43045 1.43046 1.43045 1.43046 1.43045 1.43046 1.43045 1.43046 1.43045 1.43046 1.43045 1.43046 1.43045 1.43046 1.43045 1.43046 1.43045 1.43046 1.43045 1.43046 1.43045 1.43046 1.43045 1.43046 1.43045 1.43046 1.43045 1.43046 1.43045 1.43046 1.43045 1.43046 1.43045 1.43046 1.43046 1.43045 1.43045 1.43046 1.43045 1.43046 1.43045 1.43046 1.43045 1.43046 1.43046 1.43045 1.43046 1.43045 1.43045 1.43046 1.43045 1.43046 1.43046 1.43045 1.43046 1.43045 1.43046 1.43045 1.43046 1.43045 1.43046 1.43045 1.43046 1.43045 1.43046 1.43045 1.43046 1.43045 1.43046 1.43045 1.43046 1.43045 1.43046 1.43045 1.43046 1.43045 1.43046 1.43045 1.43046 1.43045 1.43046 1.43045 1.43046 1.43045 1.43046 1.43045 1.43046 1.43045 1.43046 1.43045 1.43046 1.43045 1.43046 1.43045 1.43046 1.43045 1.43046 1.43045 1.43046 1.43045 1.43046 1.43045 1.43046 1.43045 1.43046 1.43045 1.43046 1.43045 1.43046 1.43045 1.43046 1.43045 1.43046 v -1.33e-4 0 l -1.43046,-4.54e-4 -1.43045,-0.0013 -1.43046,-0.0028 -1.43045,-0.004 -1.43046,-0.0037 -1.43045,-0.002 -1.43046,-5.98e-4 -1.43045,-6.84e-4 -1.43046,-0.0015 -1.43045,-0.0026 -1.43046,-0.0043 -1.43045,-0.0058 -1.43046,-0.0064 -1.43045,-0.0086 -1.43046,-0.01479 -1.43045,-0.02142 -1.43046,-0.02253 -1.43045,-0.01883 -1.43046,-0.01806 -1.43045,-0.02346 -1.43046,-0.02914 -1.43045,-0.03115 -1.43046,-0.03464 -1.43045,-0.04549 -1.43046,-0.06252 -1.43045,-0.08101 -1.43046,-0.09919 -1.43045,-0.117413 -1.43046,-0.133651 -1.43045,-0.149147 -1.43046,-0.177666 -1.43045,-0.230438 -1.43046,-0.290005 -1.43045,-0.321675 -1.43046,-0.313717 -1.43045,-0.285924 -1.43046,-0.263008 -1.43045,-0.26371 -1.43046,-0.307436 -1.43045,-0.400412 -1.43046,-0.518807 -1.43045,-0.630937 -1.43046,-0.732815 -1.43045,-0.84725 -1.43046,-0.983818 -1.43045,-1.104626 -1.43046,-1.161186 -1.43045,-1.175438 -1.43046,-1.236475 -1.43045,-1.393578 -1.43046,-1.57679 -1.43045,-1.658334 -1.43046,-1.63363 -1.43045,-1.691756 -1.43046,-1.99701 -1.43045,-2.456836 -1.43046,-2.827167 -1.43045,-2.988756 -1.43046,-3.02562 -1.43045,-3.09097 -1.43046,-3.26669 -1.43046,-3.52105 -1.43045,-3.79013 -1.43046,-4.07904 -1.43045,-4.38309 -1.43045,-4.58378 -1.43046,-4.63252 -1.43045,-4.73364 -1.43046,-5.09234 -1.43046,-5.57635 -1.43045,-5.85039 -1.43046,-5.77927 -1.43045,-5.55012 -1.43046,-5.44099 -1.43045,-5.5389 -1.43046,-5.68959 -1.43045,-5.75118 -1.43045,-5.81475 -1.43046,-6.0188 -1.43046,-6.24965 -1.43045,-6.2515 -1.43046,-5.97349 -1.43045,-5.61227 -1.43046,-5.34446 -1.43045,-5.16109 -1.43046,-4.95088 -1.43045,-4.64549 -1.43046,-4.27136 -1.43045,-3.93164 -1.43046,-3.75904 -1.43045,-3.78685 -1.43046,-3.82216 -1.43045,-3.53319 -1.43046,-2.75843 -1.43045,-1.77255 -1.43046,-1.10374 -1.43045,-0.93868 -1.43046,-0.92202 -1.43045,-0.6777 -1.43046,-0.202 -1.43045,0.36926 -1.43046,1.02131 -1.43045,1.74608 -1.43046,2.39282 -1.43045,2.7656 -1.43046,2.84065 -1.43045,2.83655 -1.43046,3.00698 -1.43045,3.37051 -1.43046,3.73002 -1.43045,3.96185 -1.43046,4.1833 -1.43045,4.57271 -1.43046,5.07951 -1.43045,5.43979 -1.43046,5.51984 -1.43045,5.51462 -1.43046,5.69788 -1.43045,6.05917 -1.43046,6.32311 -1.43045,6.29841 -1.43046,6.05185 -1.43045,5.75018 -1.43046,5.51332 -1.43045,5.39707 -1.43046,5.36896 -1.43045,5.34691 -1.43046,5.31089 -1.43045,5.28609 -1.43046,5.21126 -1.43045,4.97055 -1.43046,4.61812 -1.43045,4.4021 -1.43046,4.4528 -1.43045,4.58753 -1.43046,4.5254 -1.43045,4.20136 -1.43046,3.78077 -1.43045,3.42266 -1.43046,3.13384 -1.43045,2.85288 -1.43046,2.584891 -1.43045,2.398798 -1.43046,2.320875 -1.43045,2.272487 -1.43046,2.129734 -1.43045,1.85906 -1.43046,1.569256 -1.43045,1.382822 -1.43046,1.294704 -1.43045,1.221352 -1.43046,1.136202 -1.43045,1.075065 -1.43046,1.040587 -1.43045,0.984068 -1.43046,0.88213 -1.43045,0.765889 -1.43046,0.669215 -1.43045,0.596062 -1.43046,0.536301 -1.43045,0.484651 -1.43046,0.435213 -1.43046,0.367519 -1.43045,0.270987 -1.43046,0.182893 -1.43045,0.154514 -1.43046,0.180214 -1.43045,0.204398 -1.43045,0.19185 -1.43046,0.154808 -1.43046,0.120925 -1.43045,0.106463 -1.43046,0.114484 -1.43045,0.132954 -1.43046,0.13645 -1.43045,0.10915 -1.43046,0.06469 -1.43045,0.0303 -1.43046,0.0169 -1.43045,0.01559 -1.43046,0.01636 -1.43045,0.01819 -1.43046,0.02262 -1.43045,0.02697 -1.43046,0.02716 -1.43045,0.02308 -1.43046,0.01745 -1.43045,0.01156 -1.43046,0.0054 -1.43045,2.63e-4 -1.43046,-0.002 -1.43045,-0.0013 -1.43046,10e-4 -1.43045,0.0036 -1.43046,0.005 -1.43045,0.0046 -1.43046,0.003 -1.43045,0.0014 z"
             style="stroke:#3e356b;stroke-width:0.2" />
        </defs>
        <g
           clip-path="url(#p1304fc6e05)"
           id="g32">
          <use
             xlink:href="#mcbba252e6b"
             x="0"
             y="576"
             style="fill:#3e356b;fill-opacity:0.5;stroke:#3e356b;stroke-width:0.2"
             id="use30"
             width="100%"
             height="100%" />
        </g>
      </g>
    </g>
  </g>
  <defs
     id="defs44">
    <clipPath
       id="p1304fc6e05">
      <rect
         x="108"
         y="69.120003"
         width="669.59998"
         height="434.88"
         id="rect41" />
    </clipPath>
  </defs>
</svg>
